<?xml version="1.0" encoding="UTF-8"?>
<svg id="Layer_1" data-name="Layer 1" xmlns="http://www.w3.org/2000/svg" viewBox="0 0 593.94 424.76">
  <defs>
    <style>
      .cls-1 {
        fill: #15181c;
      }

      .cls-2 {
        fill: #2750a0;
      }

      .cls-3 {
        fill: #343433;
      }

      .cls-4 {
        isolation: isolate;
      }

      .cls-5 {
        fill: #18191e;
      }

      .cls-6 {
        fill: #171b20;
      }

      .cls-7 {
        fill: #717374;
      }

      .cls-8 {
        fill: #8b8d8f;
      }

      .cls-9 {
        fill: #ebedef;
      }

      .cls-10 {
        fill: none;
        stroke: #717374;
        stroke-linecap: square;
      }

      #callout_L2,
      #callout_L1,
      #callout_Create,
      #callout_DPad_Up,
      #callout_DPad_Left,
      #callout_DPad_Right,
      #callout_DPad_Down,
      #callout_Left_Thumb_Stick,
      #callout_R2,
      #callout_R1,
      #callout_LB,
      #callout_RB,
      #callout_FNL,
      #callout_FNR,
      #callout_Start,
      #callout_Triangle,
      #callout_Square,
      #callout_Circle,
      #callout_Cross,
      #callout_Right_Thumb_Stick {
        display: none;
      }
    </style>
  </defs>
  <path class="cls-7" d="M408.45,108.84c0-1.91-.15-4.76.02-6.99.11-1.35.36-4.17.75-8.44.4-4.42,2.29-8.19,6.28-10.57,4.86-2.91,10.48-4.05,16.27-3.91,2.28.05,4.27.22,5.97.51,6.25,1.05,11.48,3.7,15.68,7.96,2.13,2.16,4.23,4.74,6.28,7.46,2.34,3.09,4.6,6.09,6.77,9,.96,1.29,1.35,3.19,1.96,5.34h0c.06.21.2.38.4.49,3.04,1.7,4.5,4.66,5.01,7.79h0c.02.13.12.25.26.3,1.66.6,3.1,1.32,4.33,2.15h0c.24.16.46.37.62.6.55.75,1.01,1.51,1.38,2.27,1.7,3.45,2.87,5.8,3.53,7.07,1.08,2.08,2.25,4.44,3.51,7.08,3.01,6.32,6.07,13.04,9.18,20.17,5.99,13.74,10.89,27.66,14.69,41.74,1.37,5.07,2.71,10.9,4.02,17.49,2.01,10.14,3.25,20.58,3.05,30.83-.21,10.9-1.6,21.57-4.17,32.01-1.33,5.43-3.02,10.75-5.06,15.98-.35.89-1.19,2.74-2.52,5.54-1.33,2.8-3.09,5.78-5.25,8.94-5.43,7.91-12.76,14.63-22.03,18.39-2.7,1.1-5.79,1.85-9.26,2.24-1.84.21-3.6-.07-5.64-.27-3.31-.32-6.4-1.23-9.29-2.72-2.9-1.5-5.61-3.49-8.15-5.98-2.85-2.8-5.58-6.2-8.19-10.18-2.55-3.9-4.6-7.22-6.12-9.94-2.69-4.8-5-9.01-6.91-12.63-.46-.87-.88-1.46-1.28-1.76-1.45-1.13-3.66-2.1-5.42-2.47-3.34-.69-6.29-1.02-8.87-1.01-.32,0-1.92.12-4.8.36-1.69.14-3.27.37-4.75.69-4.28.91-7.64,1.7-11.08,3.81-1.5.92-3.49,2.08-5.97,3.48h0c-.24.14-.43.34-.55.59-.4.85-.97,2.03-1.69,2.67-2.39,2.12-6,2.5-9.19,2.61-2.37.08-5.54,0-9.53-.24-2.6-.16-4.47-.52-5.63-1.08-2.69-1.31-3.71-3.29-4.97-5.77-.41-.8-2.5-1.82-3.48-2.33-.62-.32-1.42-.64-2.39-.95-5.22-1.69-10.91-2.47-16.51-2.79-1.99-.12-3.75-.22-5.27-.33-3.27-.22-8.19-.35-14.75-.38-5.88-.03-13.63-.03-23.27,0-7.36.02-14.33.31-20.92.86-3.12.26-6.34.75-9.66,1.46-2.4.52-5.03,1.48-7.14,2.42-1.03.46-1.94,1.09-2.74,1.89h0c-.13.14-.24.29-.31.47-.45,1.12-.75,1.81-.92,2.08-2.01,3.27-5.07,4.14-8.86,4.43-1.81.14-4.25.23-7.31.28-4.59.08-11.79.08-13.45-4.95-.15-.45-.82-.91-1.31-1.13-1.91-.83-4.18-2.24-6.1-3.65h0c-.45-.33-.95-.61-1.48-.81-2.02-.79-3.34-1.28-3.97-1.47-4.04-1.2-8.12-1.92-12.24-2.15-3.21-.18-6.36.1-9.37.58-2.55.41-6.55,1.65-7.86,3.91-.02.04-1.04,1.95-3.04,5.73-3.57,6.75-6.62,12.26-10.31,17.83-1.44,2.17-3.24,4.55-5.4,7.14-2.37,2.83-4.88,5.17-7.55,7.02-.48.33-1.54.93-3.19,1.8-3.82,2.01-7.7,2.52-12.06,2.93-1.14.11-2.19.09-3.16-.04-1.84-.25-4.07-.8-6.7-1.63-3.85-1.22-7.5-3.22-10.72-5.4-2.22-1.5-4.29-3.2-6.23-5.09-9.31-9.11-14.86-20.53-18.33-32.64-5.46-19.01-6.99-38.68-4.19-58.19,2.05-14.31,5.46-28.45,9.87-42.22.95-2.96,2.4-7.16,4.37-12.6,4.2-11.64,9.3-23.22,14.57-34.16,2.16-4.49,3.3-6.87,3.41-7.12,1.5-3.37,3.24-6.47,5.11-10.21h0c.04-.07.08-.15.14-.21,1.39-1.6,3.08-2.18,5.33-3.08h0c.17-.07.29-.22.32-.39.4-2.75,1.77-5.7,4.33-7.24.48-.29.82-.53,1.03-.74h0c.1-.1.16-.22.19-.35.5-2.56,1.53-4.82,3.09-6.77,1.25-1.56,2.42-3.1,3.53-4.6.3-.41,2.27-2.88,5.89-7.4,2.85-3.55,6.32-6.31,10.56-8.42,3.46-1.72,7.92-2.5,11.91-2.85,1.93-.17,4.35-.04,6.63.12,4.38.32,9.55,1.94,13,4.71,2.62,2.11,4.28,5.07,4.5,8.26.07,1,.21,1.96.21,2.78,0,2.03.47,4.15.5,5.86.02,1.41.25,2.52.12,4.07-.11,1.3-.17,2.66-.18,4.07h0c0,.09.08.16.17.16.04,0,.08-.01.11-.03.72-.53,1.49-.84,2.33-.92,4.07-.38,7.79-.87,12.12-1.27,10.15-.95,18.73-1.49,29.54-2.17,8.19-.52,17.08-.75,25.35-1.04,2.74-.1,4.98-.15,6.71-.17,3.56-.03,6.03-.23,8.96-.21,6.86.03,15.72-.14,22.93-.12,11.18.02,19.96.09,26.36.21,3.67.07,6.12.1,7.36.1.31,0,5.69.18,16.14.54,19.82.68,38.94,2.06,57.34,4.15.94.11,1.76.41,2.46.91h0c.07.05.17.04.23-.03.02-.03.03-.06.03-.09l-.02-.03h0Z"/>
  <path class="cls-5" d="M136.23,102.63h0s-.09-.02-.1-.06v-.06c.87-1.28,1.71-2.37,2.51-3.27.89-1,1.63-2.3,2.29-3.09,3.26-3.94,5.27-6.31,6.03-7.13.35-.38,1.26-1.16,2.73-2.35,1.16-.94,2.14-1.63,2.97-2.08,3.43-1.88,7.42-3.08,11.49-3.37,1.54-.11,2.86-.19,3.96-.22.62-.02,1.92.08,3.9.28,5.53.57,10.45,2.33,13.71,6.23.83,1,1.35,2.27,1.56,3.83.43,3.34.68,6.69.75,10.04h0c0,.1-.09.19-.2.19-.04,0-.08,0-.11-.03-2.59-1.49-5.28-2.55-8.08-3.19-1.44-.32-3.39-.46-5.12-.69-2.16-.28-5.13-.27-6.42-.34-1.59-.09-3.04-.11-4.35-.05-4.51.22-8.91.7-13.19,1.45-1.99.35-3.99,1-5.99,1.41-2.66.55-5.96,2-8.34,2.5h0Z"/>
  <path class="cls-5" d="M462.94,102.85c-1.61-.39-3.57-1.38-5.28-1.82-.45-.12-1.98-.5-4.59-1.15-2.25-.56-3.78-.92-4.6-1.08-9.28-1.81-18.72-2.01-28.32-.6-2.22.33-4.38.97-6.48,1.92-1.08.49-2.03,1.07-2.84,1.75h0s-.09.03-.12,0c-.02-.02-.02-.04-.02-.06.4-3.74.73-6.95.97-9.63.55-6.04,6.72-9.41,12.56-10.5,2.39-.45,4.74-.67,7.05-.66,2.48,0,4.84.22,7.08.64,6.32,1.19,11.52,4.33,15.57,9.41,2.48,3.11,4.03,5.05,4.67,5.84.74.91,1.51,2.19,2.43,3.25.75.87,1.43,1.72,2.03,2.55h0s.02.1-.03.13c-.02.02-.06.02-.08.01Z"/>
  <path class="cls-5" d="M466.19,108.83h0s-.02.06-.05.07h-.04c-1.33-.62-3.29-1.46-5.87-2.53-.72-.29-2.35-.82-4.91-1.56-7.86-2.3-16.38-3.16-24.72-2.99-3.97.08-7.58.47-10.83,1.16-1.85.39-3.17.73-3.94,1.01-1.93.7-4.19,2.26-4.95,4.18-.15.38-.31.7-.47.94h0c-.04.07-.14.09-.21.05-.05-.03-.08-.09-.07-.15.24-1.37.34-2.87.29-4.49-.01-.45.23-.91.74-1.39,1.5-1.43,3.36-2.42,5.58-2.99,2.86-.73,6.35-1.33,9.27-1.51,5.41-.33,10.56-.23,15.45.27,2.22.23,5.69.82,10.42,1.77,2.51.5,5.21,1.7,7.53,2.24,1.58.37,2.99,1.11,4.66,1.67h0c.34.11.62.34.78.63.62,1.08,1.06,2.29,1.35,3.61h-.01Z"/>
  <path class="cls-5" d="M133.19,108.58h0c-.07.03-.16,0-.19-.07v-.07c.25-1.31.68-2.48,1.29-3.52h0c.11-.18.28-.32.49-.39.96-.31,1.87-.64,2.74-1,2.48-1.03,5.18-1.65,7.44-2.34,3.12-.96,5.93-1.25,9.69-1.98.25-.05,1.55-.19,3.88-.42,3.59-.36,8.12-.4,10.85-.34.65.02,2.24.12,4.76.31,2.18.16,4.21.63,6.7,1.1,1.04.19,2.19.55,3.46,1.07,1.19.48,3.63,2,3.87,3.34.18,1,.34,2.48.47,4.44,0,.17,0,.29-.07.35h0c-.05.06-.13.07-.19.03-.02-.01-.03-.03-.04-.05-1.3-2.4-2.58-4.11-5.46-5.06-1.24-.41-3.52-.94-6.84-1.59-1.59-.31-4.4-.51-8.43-.59-5.77-.12-11.82.4-18.17,1.57-1.87.34-3.68.76-5.42,1.25-2.64.74-4.4,1.3-5.28,1.67-2.6,1.1-4.44,1.86-5.52,2.29h-.03Z"/>
  <path class="cls-5" d="M185.41,107.6c.13,2.94-.4,5.48-1.61,7.61-.37.66-1.09,1.35-2.15,2.06-2.63,1.77-5,2.54-8.59,3.24-2.43.48-5.54.97-9.32,1.49-6.59.9-13.63,1.72-20.5,2.24-4.81.36-9.48.4-13.41-1.63-2.23-1.15-3.06-3.34-2.52-5.65.31-1.33.49-2.59,1.33-3.52,1.04-1.17,2.2-2.11,3.5-2.84.21-.12,1.48-.75,3.82-1.91,1.06-.52,2.15-.96,3.26-1.31,1.04-.33,2.94-1.05,4.48-1.47,8.22-2.25,16.78-3.23,25.69-2.93,2.13.07,4.78.32,7.94.75,2.54.34,4.91,1.16,7.11,2.44.34.2.64.57.89,1.12h0c.05.1.07.21.08.31h0Z"/>
  <path class="cls-5" d="M423.25,120c-1.53-.38-2.99-1.05-4.67-1.78-2.29-1-3.82-2.73-4.59-4.97-.17-.5-.33-1.29-.47-2.39-.21-1.64-.33-2.33-.04-3.62.23-1.01,1.43-1.55,2.56-2.02,1.41-.59,2.57-.96,3.48-1.13,3.61-.67,7.59-1.04,11.94-1.12,9.09-.16,17.89,1.12,26.41,3.83,2.35.75,4.33,1.53,5.95,2.33,2.01,1,3.8,2.1,5.38,3.3.99.75,1.63,1.7,1.91,2.85.32,1.26.83,2.74.43,4.04-.65,2.09-2.1,3.16-4.15,3.92-5.05,1.86-10.48,1.2-16.03.64-7.96-.8-14.8-1.62-20.52-2.47-3.07-.45-5.6-.93-7.59-1.43v.02h0Z"/>
  <path class="cls-3" d="M299.31,105.09c6.26,0,12.42-.01,18.48.06,4.55.06,10.1-.26,13.65,2.88,1.21,1.08,3.06,2.73,4.28,4.19,1.45,1.76,3.08,3.44,5.18,4.52h0s.07.08.04.13c-.02.03-.06.05-.1.05-2.88-.18-5.45-.17-7.9-.23-12.33-.27-23.54-.4-33.63-.4s-21.3.14-33.63.41c-2.44.05-5.02.05-7.9.23h0c-.06,0-.11-.04-.11-.09,0-.04.02-.07.05-.09,2.1-1.08,3.73-2.77,5.18-4.52,1.21-1.47,3.06-3.12,4.27-4.2,3.55-3.14,9.09-2.83,13.64-2.89,6.06-.08,12.22-.07,18.48-.07,0,0,.02.02.02.02Z"/>
  <path class="cls-9" d="M269.34,105.33h0s.06.02.06.05c0,.02-.01.04-.03.05-1.05.5-2.17,1.19-3.37,2.07-.77.57-1.7,1.47-2.78,2.7-1.17,1.33-2.55,2.77-4.13,4.3-.95.93-2.14,1.63-3.56,2.12-.73.25-2.14.42-4.2.51-2.59.11-5.71.24-9.35.39-13.77.55-27.99,1.47-42.66,2.77-3.09.27-5.31.22-7.79-.95-.96-.46-1.39-1.19-1.29-2.2.17-1.6.21-3.09.13-4.45-.04-.61.03-1.04.2-1.28,1.04-1.48,3.44-1.55,5.32-1.75,12.91-1.4,25.71-2.44,38.41-3.13,2.01-.11,3.59-.17,4.74-.18,2.06-.02,3.85-.25,6.31-.35,8.63-.35,16.63-.57,23.99-.67h0Z"/>
  <path class="cls-9" d="M329.18,105.48h0c-.06-.02-.09-.09-.06-.14.02-.04.07-.07.12-.07,1.55.14,2.85.19,3.92.17,2.05-.05,3.36-.05,3.92.01.09,0,3.57.12,10.45.34,17.01.54,34.02,1.68,51.06,3.44,3.13.32,5.32.57,6.58.75,1.42.2,2.66.68,3.22,2.01h0c.04.1.06.2.06.3,0,1.52-.29,3.18-.17,4.84.05.72-.03,1.22-.24,1.48-1.42,1.73-5.45,1.93-7.65,1.75-7.64-.64-14.95-1.2-21.93-1.67-6.57-.44-17.09-.99-31.55-1.62-1.94-.09-3.27-.26-3.98-.52-2.45-.89-3.61-2.3-5.83-4.59-.81-.84-1.54-1.62-2.16-2.35-1.51-1.75-3.53-3.3-5.74-4.13h-.02Z"/>
  <path class="cls-7" d="M313.77,109.89h0c0,1.45-1.27,2.62-2.84,2.62h-23.07c-1.57,0-2.84-1.17-2.84-2.62h0v-.55h0c0-1.45,1.27-2.62,2.84-2.62h23.07c1.57,0,2.84,1.17,2.84,2.62h0v.55Z"/>
  <path class="cls-7" d="M283.42,110.71h0c0,1-.88,1.82-1.97,1.81h-7.15c-1.08-.01-1.96-.83-1.96-1.83h0v-1.97h0c0-1,.88-1.82,1.97-1.81h7.15c1.08.01,1.96.83,1.96,1.83h0v1.97Z"/>
  <path class="cls-7" d="M326.47,110.76h0c-.01,1.01-.9,1.81-1.99,1.8l-7.12-.07h0c-1.09-.01-1.96-.84-1.95-1.84l.02-1.97h0c.01-1.01.9-1.81,1.99-1.8l7.12.07h0c1.09.01,1.96.84,1.95,1.84l-.02,1.97Z"/>
  <path class="cls-9" d="M312.67,109.76h0c0,.94-.82,1.71-1.84,1.71h0l-22.84.04h0c-1.02,0-1.84-.76-1.85-1.7v-.34h0c0-.94.82-1.71,1.84-1.71h0l22.84-.04h0c1.02,0,1.84.76,1.85,1.7h0v.34Z"/>
  <path class="cls-9" d="M282.3,110.61h0c0,.47-.4.85-.91.85l-7,.06h0c-.51,0-.92-.37-.92-.84l-.02-1.84h0c0-.47.4-.85.91-.85l7-.06h0c.51,0,.92.37.92.84l.02,1.84Z"/>
  <path class="cls-9" d="M325.41,110.63h0c0,.44-.38.81-.85.82l-7.14.1h0c-.48,0-.87-.35-.88-.79l-.03-1.92h0c0-.44.38-.81.85-.82l7.14-.1h0c.48,0,.87.35.88.79h0l.03,1.92Z"/>
  <path class="cls-5" d="M126.25,120.75h0c.01-.05.07-.08.12-.07.03,0,.05.02.07.05,1.31,2.15,3.33,3.53,6.05,4.14,2.65.59,5.42.79,8.3.62,7.69-.47,15.45-1.37,22.9-2.35,4.23-.56,8.02-1.17,11.36-1.84.51-.1,1.69-.47,3.57-1.09,2.75-.92,4.25-2.02,5.95-4.06,1.74-2.09,2.18-5.07,1.87-7.64h0c0-.09.06-.17.16-.18.07,0,.14.02.17.08,1.01,1.67,1.56,3.42,1.63,5.25.07,1.67.23,2.86.21,4.43-.03,2.3-.04,3.67-.45,5.72-.33,1.66-1.16,2.65-2.31,4.23-1.22,1.67-2.87,2.57-4.79,3.18h0c-.24.08-.49.13-.75.16-1.45.16-3.92.29-6.12.56-5.5.65-12.27,1.41-20.32,2.26-5.01.53-9.98.95-14.96,1.03-3.37.05-6.37-.44-9.44-1.48-.81-.27-1.63-.76-2.48-1.46-2.78-2.3-1.36-5.27-1.16-8.16.1-1.44.24-2.55.42-3.34,0,0,0-.04,0-.04Z"/>
  <path class="cls-5" d="M472.38,121.16c.16.41.27.88.33,1.41.11.95.33,2.81.66,5.57.1.8-.09,1.72-.58,2.76-.81,1.75-3.54,3.06-5.44,3.47-2.94.63-5.76.91-8.47.84-1.82-.04-5.29-.28-10.4-.71-3.84-.32-12.06-1.2-24.65-2.64-1.19-.14-3.45-.39-4.45-.41-4.92-.12-9.06-5.37-9.12-9.52-.02-1.59-.13-2.51-.07-3.85.05-1,.05-2.19,0-3.57-.03-.97.09-1.87.35-2.69.45-1.38.89-2.47,1.32-3.27h0c.05-.09.17-.13.27-.08.05.02.08.06.1.11.01.03.01.12,0,.27-.09,1.52.11,3.06.58,4.63,1.1,3.65,4.8,6.3,8.58,7.29,1.93.51,4.4.99,7.41,1.46,9.52,1.46,19.05,2.54,28.58,3.23,3.12.23,6.06.02,8.82-.63,2.46-.58,4.45-1.81,5.97-3.7h0s.12-.06.17-.02c.02.01.03.03.04.05h0Z"/>
  <path class="cls-3" d="M398.03,121.3h0c.15.01.27.13.27.27l.51,17.16h0c0,.16-.12.29-.28.32-1.03.17-2.06.18-3.08.03h0c-.17-.03-.31-.16-.31-.33-.05-1.21,0-2.43-.29-3.63-.39-1.56-.89-2.83-1.51-3.79-2.33-3.66-6.15-5.17-10.55-5.67-2.63-.3-5.69-.56-9.2-.79-11.76-.75-21.39-1.08-32.86-1.43-3.13-.1-7.48-.17-13.05-.22-17.7-.17-25.68-.38-38.61-.16-2.45.04-7.44.08-14.97.13-8.8.05-18.46.31-27.62.61-10.12.34-19.51.85-28.17,1.54-1.73.14-3.4.38-4.98.71-3.56.75-7.16,2.83-8.6,5.94-1,2.16-1.63,4.22-1.38,6.7h0c.02.17-.11.33-.29.36-.94.17-1.94.17-3.01,0h0c-.1-.02-.18-.09-.19-.19-.12-1.41-.15-2.66-.09-3.74.24-4.15.19-9.03.32-11.63.05-.9.09-1.54.14-1.92h0c.02-.14.14-.26.29-.27,1.44-.17,2.94-.31,4.52-.43,9.39-.72,18.5-1.31,27.33-1.78,4.29-.23,11.33-.53,21.13-.9,7.42-.28,14.47-.47,21.15-.55,18.41-.25,33.3-.28,44.67-.1,15.93.25,30.25.7,42.97,1.34,12.09.61,24.01,1.43,35.75,2.44v-.02h-.01Z"/>
  <path class="cls-3" d="M198.86,140.61h0c-.05.03-.12.02-.16-.03h0c-.2-.45-.76-1.04-1.66-1.79-3.39-2.82-7.41-4.27-12.06-4.35-5.11-.09-8.89.4-15.14,1.09-8.01.88-16.01,1.77-24.01,2.67-5.1.57-10.15.89-14.87.61-.61-.04-1.93-.32-3.96-.84-1.37-.35-2.42-.75-3.16-1.19-1.46-.87-3.21-2.24-3.85-3.87-.49-1.25-.92-2.39-.91-3.58,0-.11.05-.63.13-1.55.2-2.06.83-4.01,1.89-5.85h0c.15-.25.35-.48.59-.65.93-.67,1.94-1.21,3.03-1.61h0c.09-.03.2,0,.23.09,0,.02.01.05.01.07-.05.95-.15,1.83-.31,2.63-.39,2.03-.6,4.13-.75,5.49-.26,2.39,1.42,4.88,3.53,6.13,2.57,1.52,4.57,1.79,7.93,2.1,1.96.18,3.67.24,5.11.17,4.98-.21,10.64-.72,16.01-1.32,11.78-1.31,18.8-2.08,21.07-2.32,3.17-.33,6.16-.38,8.98-.16,3.8.3,6.92,1.98,9.66,4.19.33.27.74.75,1.21,1.43.61.89,1.11,1.67,1.48,2.33h0s0,.1-.04.12h.02Z"/>
  <path class="cls-3" d="M408.43,119.79h0c.06-.04.15-.03.19.02.02.02.03.05.03.07.13,4.2,1.76,8.95,5.87,11.15h0c.06.03.08.1.05.15-.02.03-.06.06-.1.06-2.5.08-4.92.22-6.86,1.04-1.74.73-3.89,1.65-5.22,2.86-.71.65-1.42,1.41-2.13,2.28h0c-.07.08-.19.1-.28.04-.05-.03-.08-.09-.08-.14-.08-2.58.08-4.52-.13-6.86-.11-1.27-.16-2.69-.13-4.26.02-1.51-.23-3.17-.19-4.71h0c0-.06.05-.11.12-.11h0c.27,0,.9.06,1.89.16,2.65.26,4.97-.33,6.97-1.77v.02h0Z"/>
  <path class="cls-3" d="M399.66,140.59h0c-.08-.05-.11-.15-.06-.23h0c1.32-1.88,2.09-2.93,2.31-3.15.73-.73,1.85-1.56,3.34-2.51,1.09-.69,2.4-1.21,3.93-1.56,3.15-.73,5.73-.96,8.68-.69,1.16.1,2.23.11,3.54.27,8.19.95,16.51,1.86,24.96,2.74,4.57.48,9.16.77,13.75.89.65.02,1.82-.04,3.53-.16,2.99-.22,5.34-.98,7.9-2.35.49-.26,1.18-.92,2.07-1.98.57-.67.96-1.42,1.19-2.25.17-.63.17-1.47,0-2.5-.44-2.75-.76-5.15-.96-7.18h0c0-.08.06-.15.14-.15.02,0,.05,0,.07.01,1.15.44,2.16.96,3.01,1.57h0c.21.14.37.33.48.55.94,1.88,1.47,3.02,1.58,3.45.15.59.28,1.57.4,2.93.42,4.88-3.15,8.56-7.97,9.78-2.98.76-6.18,1.03-9.59.83-3.71-.21-6.59-.43-8.65-.66-2.3-.25-10.62-1.16-24.96-2.74-5.76-.63-9.26-.95-14.41-1.08-2.68-.07-5.57.62-7.84,1.5-1.35.52-2.79,1.39-4.31,2.6-.9.71-1.53,1.39-1.91,2.03h0c-.05.08-.15.1-.23.06h0v-.02h0Z"/>
  <path class="cls-3" d="M198.53,137.56h0s-.04.08-.09.08c-.03,0-.05,0-.07-.03-1.68-2-3.39-3.64-5.89-4.64-2.56-1.03-5.28-1.59-8.14-1.69h0c-.07,0-.12-.06-.12-.12,0-.03.02-.07.05-.09,1.39-1.06,3.18-2.55,4.04-4.24.8-1.58,1.38-3.04,1.73-4.39.19-.72.14-1.25.14-2.19h0c0-.08.07-.14.15-.14.03,0,.07.01.1.03,2.12,1.57,5.69,1.49,8.34,1.31h0c.09,0,.17.06.18.14v.02l-.41,15.95h0Z"/>
  <path class="cls-1" d="M299.19,124.06c10.33,0,15.24-.02,23.33.11,11.33.17,22.65.47,33.98.88,8.32.3,16.3.78,23.93,1.43,4.62.4,9.24,1.33,11.74,5.24,1.68,2.62,1.97,6.25,1.51,9.37h0c-.01.08-.09.14-.18.13h-.02c-1.61-.39-3.09-.71-4.46-.94-6.83-1.17-13.7-1.65-21.46-2.14-3.74-.24-7.37-.42-10.9-.56-15.99-.62-31.32-.94-45.98-.94h-22.96c-14.67,0-30,.34-45.98.97-3.53.14-7.17.33-10.9.57-7.76.5-14.62.98-21.46,2.16-1.37.24-2.85.55-4.46.95h0c-.09.02-.18-.03-.2-.11v-.02c-.47-3.11-.18-6.74,1.5-9.37,2.5-3.9,7.12-4.85,11.74-5.25,7.63-.66,15.61-1.14,23.93-1.45,11.33-.42,22.66-.72,33.98-.9,8.1-.13,13-.12,23.33-.12h-.01Z"/>
  <path class="cls-9" d="M480.98,128.46c.08.07.16.18.23.33,1.1,2.42,2.29,4.92,3.57,7.5,1.73,3.5,3.94,8.22,6.63,14.16,3.84,8.48,7.2,16.59,10.07,24.34,2.87,7.74,5.48,15.94,7.82,24.62,3.33,12.36,5.51,24.21,6.53,35.55.46,5.13.57,10.61.31,16.46-.5,11.5-2.56,23.2-6.16,35.1-4.3,14.18-12.24,28.62-25.78,36.89-4.31,2.63-9.57,4.52-14.85,4.93h0c-.1,0-.2-.04-.25-.12-.85-1.53-1.5-2.82-1.94-3.87-.75-1.77-1.37-3.08-1.88-3.92-.8-1.33-1.97-3.47-3.5-6.44-.75-1.44-1.93-3.57-3.55-6.39-3.62-6.29-6.89-11.74-9.83-16.34-1.4-2.19-2.36-3.71-2.89-4.54-.59-.93-2.16-3.3-4.73-7.11-1.5-2.22-2.96-4.29-4.39-6.19-2.33-3.11-4.12-5.67-6.09-8.13-7.07-8.84-12.48-15.36-16.24-19.58-2.13-2.39-3.29-3.71-3.5-3.96-1.83-2.28-4.6-5.06-6.8-7.54-.93-1.05-1.71-1.87-2.33-2.48-1.16-1.13-2.43-2.95-3.74-4.1-.8-.7-1.35-1.47-2.32-2.5-2.65-2.79-4.14-4.41-4.47-4.84-1.69-2.21-3.49-4.66-4.33-7.11-.65-1.91-1.23-3.21-1.52-4.87-.62-3.6-.82-6.69-.57-9.28.26-2.74,1.03-6.16,1.97-9.52,1.61-5.76,4.1-14.86,6.15-22.3,3.39-12.37,5.23-19.11,5.52-20.22.31-1.16.78-3.03,1.44-4.23,1.19-2.17,2.91-3.83,5.15-4.98,1.42-.73,3.21-1.47,4.91-1.78,2.93-.53,5.67-.68,8.22-.43,2.99.29,6.2.5,8.3.74,11.32,1.28,21.08,2.34,29.27,3.19,3.39.35,6.79.63,9.67.5,4.26-.19,9.14-.86,12.39-3.82,2.21-2.01,3.29-4.55,3.24-7.64h0c0-.07.06-.14.14-.14.04,0,.07,0,.1.03l.03.03h0Z"/>
  <path class="cls-9" d="M117.6,129.08h0s.07-.05.11-.03c.02,0,.04.03.04.05.27,1.31.37,2.6.96,3.83.68,1.42,1.53,2.57,2.55,3.45,3.08,2.66,6.99,3.32,11.45,3.6,2.24.14,4.66.08,7.28-.17,9.2-.89,15.66-1.56,19.38-2.01,6.08-.73,11.44-1.31,16.08-1.76,2.43-.24,5.11-.43,8.04-.58,2.45-.13,5.02.28,7.69,1.23,1.51.53,3.14,1.26,4.25,2.17.49.4,1.26,1.16,2.31,2.26,1.12,1.17,1.69,2.55,2.15,4.32,1.14,4.44,1.8,6.96,1.97,7.56,1.63,5.67,3.41,12.19,5.34,19.56.7,2.66,2.52,9.36,5.48,20.12.45,1.64.8,3.72,1.04,6.24.57,5.84-.48,11.36-3.16,16.56-.54,1.06-1.38,2.41-2.52,4.06-.78,1.14-1.83,2.37-3.13,3.69-.85.86-3.69,3.85-8.5,8.97-1.31,1.39-2.46,2.67-3.47,3.86-1.5,1.76-2.98,3.24-4.66,5.14-5.78,6.52-10.14,11.55-13.07,15.08-2.88,3.46-6.41,7.94-10.61,13.45-3.74,4.9-7.19,9.77-10.36,14.6-5.85,8.91-11.25,17.77-16.18,26.57-.89,1.59-1.82,3.31-2.8,5.17-1.76,3.34-2.68,5.07-2.75,5.19-1.17,2.01-2.08,4.56-3.27,6.82h0c-.06.11-.19.18-.32.16-2.23-.31-4.37-.57-6.65-1.37-4.19-1.46-7.97-3.43-11.33-5.92-12.2-9.02-19.1-22.41-22.98-36.38-4.09-14.72-6.1-29.84-5.19-44.89.41-6.81,1.26-13.67,2.55-20.59,1.9-10.23,4.37-20.26,7.41-30.07,3.61-11.68,7.85-23.08,12.71-34.18,2.95-6.74,6.08-13.52,9.38-20.34,1-2.07,1.92-3.87,2.76-5.39l.02-.03h0Z"/>
  <path class="cls-1" d="M205.05,142.54h0c-.04-.14.06-.28.21-.31h0c9.68-1.91,18.91-2.68,29.37-3.22,9.57-.5,19.13-.89,28.01-1.07,9.64-.19,19.8-.35,30.47-.47,6.34-.07,13.4-.04,21.18.09,1.9.03,7.72.11,17.47.23,9.64.12,20.59.51,32.87,1.18,4.05.22,8.42.54,13.12.96,5.22.47,10.37,1.22,15.47,2.27h0c.17.04.28.19.24.36h0c-.29,1.05-.71,2.03-1.02,3.32-.82,3.4-2.21,8.08-2.96,10.76-3.75,13.58-6.46,23.34-8.15,29.29-2.42,8.53-3.76,13.31-4.03,14.32-.45,1.69-.9,4.17-1.56,5.79-.29.72-.8,1.84-1.52,3.37-.56,1.17-1.24,2.2-2.05,3.09-1.38,1.5-2.65,2.67-3.82,3.5-4.42,3.15-9.57,4.77-15.44,4.85-9.36.13-18.73.16-28.12.09-19.27-.15-39.89-.11-56.25.02-5.74.04-13.71,0-23.91-.13-1.96-.03-4.54-.35-6.49-.96-2.84-.89-5.4-2.03-7.68-3.42-1.87-1.14-2.84-2.27-4.71-4.26-.93-.99-1.6-2.05-2.19-3.36-1-2.23-1.81-4.64-2.43-7.25-.36-1.49-.74-2.96-1.15-4.42-4.12-14.83-8.27-29.88-12.44-45.15-.86-3.14-1.69-6.29-2.5-9.46h0Z"/>
  <path class="cls-2" d="M211.22,216.94h0c-.06-.04-.08-.11-.04-.17,1.02-1.64,1.86-3.54,2.52-5.7,2.03-6.67,1.61-13.49-.29-20.3-2.22-7.97-4.15-15.09-5.8-21.36-.55-2.12-1.13-4.03-1.69-6.19-1.27-4.89-2.57-9.61-3.89-14.14-.88-3.02-1.41-5.93-2.37-8.67h0c-.04-.1.02-.21.13-.24h.07l3.27.07h0c.14,0,.26.1.28.23.31,1.88.7,3.6,1.17,5.17.45,1.51.76,2.57.93,3.18,4.43,16.26,8.21,30.08,11.36,41.47.42,1.51.78,3.35,1.1,5.51.5,3.47.32,6.87-.54,10.21-.7,2.7-2.09,5.47-3.39,7.55-.36.57-1.25,1.7-2.67,3.38h0s-.1.05-.15.02v-.02h0Z"/>
  <path class="cls-2" d="M387.24,216.95h0c.04.06.01.14-.05.18h0s-.11.03-.15,0c-.35-.38-.71-.8-1.1-1.27-.33-.4-.64-.83-.94-1.3-1.79-2.83-2.94-4.37-3.55-6.54-1-3.58-1.6-6.99-1.26-10.67.12-1.26.33-2.85.65-4.76.18-1.11.66-2.99,1.44-5.66.46-1.57.99-3.44,1.61-5.63,3.6-12.89,6.65-23.9,9.14-33.03.35-1.27.92-2.82,1.14-4.1.22-1.29.64-2.3.92-3.68h0c.02-.1.11-.18.23-.18l3.2-.08h0c.12,0,.22.08.22.19v.06c-.97,2.96-1.52,5.83-2.47,9.02-.08.26-.75,2.71-2.02,7.34-.83,3.01-1.88,6.85-3.15,11.52-3.77,13.8-5.9,21.6-6.4,23.39-.7,2.52-1.17,5.58-1.41,9.18-.13,2.01,0,4,.38,5.95.52,2.67,1.01,4.6,1.49,5.81.47,1.19,1.17,2.61,2.12,4.26h-.04Z"/>
  <path class="cls-7" d="M414.02,142.26h0c-.04.27-.31.46-.6.43h0l-5.59-.66h0c-.29-.03-.5-.28-.46-.56v-.02h0c.04-.27.31-.46.6-.43l5.59.66h0c.29.03.5.28.46.56v.02Z"/>
  <path class="cls-7" d="M188.24,145.97h0c.03.24-.15.46-.41.49h-.06c-.26.04-.5-.13-.53-.37h0l-.55-3.95h0c-.03-.24.15-.46.41-.49h.06c.26-.04.5.13.53.37h0l.55,3.95Z"/>
  <path class="cls-7" d="M190.69,146.45h0c-.1.23-.38.34-.63.25h0l-.05-.02h0c-.25-.09-.37-.35-.27-.58l1.22-2.81h0c.1-.23.38-.34.63-.25h0l.05.02h0c.25.09.37.35.27.58h0l-1.22,2.81Z"/>
  <path class="cls-7" d="M413.75,144.63h0c-.03.24-.27.41-.53.39l-5.6-.6h0c-.26-.03-.45-.25-.42-.49h0v-.02h0c.03-.24.27-.41.53-.39l5.6.6h0c.26.03.45.25.42.49h0v.02Z"/>
  <path class="cls-7" d="M185.67,146.49h0c.17.24.1.55-.16.71l-.03.02h0c-.25.16-.6.09-.77-.15h0l-1.75-2.46h0c-.17-.24-.1-.55.16-.71h0l.03-.02h0c.25-.16.6-.09.77.15h0l1.75,2.46Z"/>
  <path class="cls-7" d="M413.7,146.98h0c-.03.25-.27.44-.55.41l-5.84-.55h0c-.27-.03-.47-.25-.45-.51v-.02h0c.03-.25.27-.44.55-.41h0l5.84.55h0c.27.03.47.25.45.51h0v.02Z"/>
  <path class="cls-7" d="M198.71,164.21h0c.93,3.21-1.13,6.51-4.6,7.37q-1.54.38,0,0l-.65.16h0c-3.47.86-7.03-1.04-7.96-4.25l-3.05-10.52h0c-.93-3.21,1.13-6.51,4.6-7.37q1.54-.38,0,0l.65-.16h0c3.47-.86,7.03,1.04,7.96,4.25h0l3.05,10.52Z"/>
  <path class="cls-7" d="M414.59,162.16c-.26.93-.59,2.17-.99,3.71-.42,1.61-.81,2.65-1.19,3.13-1.37,1.73-3.1,2.81-5.54,2.88-3.71.11-6.89-2.28-7.15-5.78-.04-.59.13-1.59.53-3.01.38-1.36.77-2.74,1.16-4.12.39-1.38.78-2.76,1.17-4.12.4-1.42.78-2.37,1.13-2.87,2.08-2.93,6.11-3.58,9.29-1.81,2.09,1.16,3.03,2.89,3.31,5.02.08.59-.13,1.68-.61,3.27-.47,1.53-.83,2.76-1.1,3.69h-.01Z"/>
  <path class="cls-9" d="M411.99,167.09h0c-.72,2.65-3.63,4.26-6.49,3.59l-.48-.11h0c-2.87-.67-4.6-3.35-3.89-6.01l2.84-10.47h0c.72-2.65,3.63-4.26,6.49-3.59l.48.11h0c2.87.67,4.6,3.35,3.89,6.01l-2.84,10.47Z"/>
  <path class="cls-9" d="M197.46,164.55h0c.74,2.64-.97,5.34-3.82,6.03h0l-.47.11h0c-2.85.69-5.77-.9-6.51-3.54l-2.94-10.44h0c-.74-2.64.97-5.34,3.82-6.03h0l.47-.11h0c2.85-.69,5.77.9,6.51,3.54l2.94,10.44Z"/>
  <path class="cls-7" d="M456.77,167.73h0c4.24,6.51,1.84,15.04-5.36,19.06h0c-7.2,4.02-16.48,2-20.72-4.5h0c-4.24-6.51-1.84-15.04,5.36-19.06h0c7.2-4.02,16.48-2,20.72,4.5Z"/>
  <path class="cls-6" d="M456.76,170.37h0c2.72,6.48-.91,13.83-8.11,16.41h0c-7.19,2.58-15.23-.58-17.95-7.06h0c-2.72-6.48.91-13.83,8.11-16.41h0c7.19-2.58,15.23.58,17.95,7.06Z"/>
  <path class="cls-8" d="M443.91,166.91l8.44,13.76h0c.05.08.02.19-.07.24-.03,0-.06.02-.09.02h-17.1c-.11,0-.19-.07-.19-.17,0-.03,0-.06.03-.09l8.66-13.77h0c.05-.08.17-.11.26-.06.03.02.05.04.07.07h-.01Z"/>
  <path class="cls-6" d="M450.3,179.75c-.04.06-.1.09-.19.09-1.47-.1-2.93-.13-4.36-.11-3.73.06-4.81,0-8.51.03h0c-.11,0-.21-.08-.21-.19,0-.03,0-.07.03-.09.65-1.07,1.31-2.14,1.97-3.19.16-.26.58-.91,1.25-1.98.67-1.06,1.09-1.72,1.25-1.98.67-1.05,1.35-2.1,2.05-3.15h0c.06-.09.18-.12.28-.06.03.02.06.04.07.07,1.78,3,2.37,3.84,4.12,6.89.68,1.17,1.42,2.33,2.23,3.47.05.06.05.13,0,.19h.02Z"/>
  <path class="cls-7" d="M146.57,196.2c-1.63-1.42-2.7-2.41-3.52-3.94-.3-.55-.53-1.42-.7-2.61-.51-3.57-.85-6.37-1-8.42-.17-2.28-.36-4.48.79-6.51,1.02-1.81,2.83-3.07,5.41-3.78,3.24-.89,6.79-1.17,10.66-.84,2,.17,3.83.56,5.48,1.15,3.29,1.19,4.92,3.09,5.39,6.22.04.26.06.95.05,2.07,0,.77-.02,1.47-.07,2.07-.17,2.33-.39,4.67-.68,6.99-.09.71-.18,1.45-.27,2.22-.12,1.07-.54,1.94-1.24,2.61-1.02.97-1.76,1.76-2.88,2.72-1.33,1.15-2.99,2.59-4.97,4.32-2.19,1.91-5.37,1.77-7.45-.14-1.41-1.3-3.35-2.71-5.01-4.15v.02h.01Z"/>
  <path class="cls-6" d="M155.2,172.68c-2.68,0-5.31.25-7.89.98-1.87.53-3.34,1.53-4.43,2.99h0s-.08.05-.12.02c-.03-.02-.04-.05-.04-.08,1.01-4.81,8.38-5.51,12.48-5.51s11.47.72,12.47,5.53h0s-.02.09-.07.1c-.03,0-.07,0-.09-.03-1.09-1.47-2.56-2.47-4.43-3-2.58-.73-5.21-.99-7.89-.99h0Z"/>
  <path class="cls-6" d="M150.68,197.78c-1.97-1.76-4.17-3.59-5.68-5.01-.6-.56-.97-1.3-1.13-2.23-.53-3.2-.88-6.11-1.07-8.73-.11-1.51.09-3.61,1.21-4.87,1.33-1.51,2.6-2,4.56-2.45,4.48-1.05,9.07-1,13.76.12,2.74.66,4.42,2.2,5.03,4.63.19.76.24,1.86.15,3.29-.17,2.53-.38,4.91-.64,7.15-.21,1.77-1.04,3.07-2.52,4.46-2.07,1.93-3.94,3.57-5.6,4.92-1.31,1.06-2.82,1.43-4.53,1.12-.74-.14-1.21-.57-1.8-1-.63-.47-1.21-.93-1.72-1.39h-.02,0Z"/>
  <path class="cls-8" d="M151.89,183.07l2.99-3.09h0c.22-.22.59-.24.83-.04.02,0,.03.03.05.05l2.97,3.11h0c.21.23.19.57-.05.77-.11.09-.25.14-.39.14l-5.95-.02h0c-.32,0-.59-.25-.59-.55,0-.13.05-.26.15-.36h-.01Z"/>
  <path class="cls-7" d="M487.92,195.92h0c4.78,6.11,3.13,14.76-3.69,19.32h0c-6.82,4.56-16.22,3.31-20.99-2.79h0c-4.78-6.11-3.13-14.76,3.69-19.32h0c6.82-4.56,16.22-3.31,20.99,2.79h0Z"/>
  <path class="cls-7" d="M423.64,201.36h0c1.95,7.41-3.12,14.92-11.33,16.78h0c-8.21,1.85-16.45-2.66-18.4-10.07h0c-1.95-7.41,3.12-14.92,11.33-16.78h0c8.21-1.85,16.45,2.66,18.4,10.07h0Z"/>
  <path class="cls-6" d="M487.58,197.63h0c3.8,5.95,1.5,13.71-5.14,17.34h0c-6.64,3.63-15.1,1.76-18.91-4.19h0c-3.8-5.95-1.5-13.71,5.14-17.34h0c6.64-3.63,15.1-1.76,18.91,4.19h0Z"/>
  <path class="cls-6" d="M422.64,202.39h0c1.34,6.9-3.78,13.52-11.45,14.79h0c-7.66,1.28-14.96-3.28-16.3-10.18h0c-1.34-6.9,3.78-13.52,11.45-14.79h0c7.66-1.28,14.96,3.28,16.3,10.18h0Z"/>
  <path class="cls-7" d="M150.42,206.13c-.28,1.41-.47,2.09-1.68,3.05-1.25.99-2.2,2.11-3.5,3.01-1.38.95-2.77,1.98-4.17,3.1-1.02.82-2.88,1.2-4.39,1.35-3.8.37-7.21.66-10.25.86-2.84.19-6.67-.59-8.33-2.99-.57-.82-1.03-1.84-1.38-3.06-1.29-4.48-1.54-8.97-.73-13.48.63-3.57,4.36-5.79,8.1-5.59,4.36.23,8.53.59,12.49,1.07,1.1.13,2.13.52,3.1,1.17,2.31,1.53,4.58,3.3,6.81,5.3,2.12,1.91,4.58,3,3.93,6.2h0Z"/>
  <path class="cls-7" d="M173.88,216.62c-2.02-.28-3.98-1.18-5.88-2.71-2.81-2.27-4.87-4.01-6.21-5.22-1.68-1.54-1.49-5.31.31-6.76.75-.6,1.32-1.1,1.72-1.48.87-.84,2.13-1.65,2.94-2.44,1.24-1.2,2.19-1.84,3.67-3.05.86-.7,1.98-1.15,3.38-1.36,3.06-.45,6.59-.82,10.59-1.1,1.62-.12,3.02-.25,4.58.14,2.11.52,3.92,1.31,4.84,3.15.59,1.19.99,2.15,1.14,3.52.45,3.99.25,7.8-.62,11.41-.3,1.26-1.01,3.46-2,4.38-1.71,1.59-4.12,2.45-6.53,2.36-5.34-.19-9.32-.47-11.95-.83h.02Z"/>
  <path class="cls-6" d="M148.4,203.18h0s0,.06-.03.08h-.06c-2.53-1.81-4.75-3.96-7.28-5.74-1.54-1.09-3.32-1.74-5.32-1.95-2.77-.3-6.05-.56-9.84-.78-1.55-.09-2.68-.05-3.4.11-2.14.48-4.21,1.5-5.09,3.46h0s-.04.04-.07.03h-.1s-.03-.03-.02-.04c.28-.89.61-1.66.97-2.29.95-1.66,2.79-2.33,4.67-2.46,1.65-.12,3.37-.08,5.15.1,1.75.18,3.99.41,6.71.7,1.82.2,3.78.44,5.06,1.53,2.47,2.09,3.46,2.99,5.63,4.58,1.18.86,2.64,1.91,3.01,2.68h0Z"/>
  <path class="cls-6" d="M162.82,202.93c.31-.34.47-.51.47-.52,2.32-2.07,4.91-4.2,7.76-6.4.85-.65,1.85-1.1,2.99-1.36,1.21-.27,3.27-.52,6.2-.74,1.93-.15,4.32-.28,7.16-.38,3.14-.12,6.01,2.14,6.2,5.11h0s-.02.06-.06.06c-.02,0-.05,0-.06-.03-.46-.84-1.07-1.59-1.82-2.26-1.73-1.53-4.96-1.88-7.17-1.7-2.3.18-5.74.51-10.31.96-1.64.16-3.19.8-4.65,1.92-.43.32-2.64,2.14-6.63,5.44h0s-.07.02-.09,0h0s-.03-.07,0-.1h0Z"/>
  <path class="cls-6" d="M127.38,216.18c-1.34,0-2.81.19-3.98,0-1.76-.27-3.16-1.06-4.23-2.37-.59-.73-1.02-1.89-1.3-3.48-.52-3.01-.64-5.88-.37-8.61.27-2.69,2-5.47,5.17-5.78,1.17-.11,2.39-.14,3.67-.08,3.61.16,7.13.45,10.54.89,1.06.13,1.97.5,2.74,1.09,2.31,1.79,3.98,3.08,5.03,3.87,1.57,1.2,2.73,2.24,3.47,3.13.63.76.79,1.6.45,2.53-.14.38-.56.85-1.27,1.42-1.33,1.07-2.47,1.82-3.34,2.63-1.34,1.27-2.89,2.41-4.6,3.37-.45.25-.95.41-1.5.49-4.14.59-7.64.88-10.48.89h0Z"/>
  <path class="cls-6" d="M182.56,216.21c-2.91-.19-6.15-.59-9.37-.94-.86-.1-1.76-.53-2.5-1.05-2.83-2-5.49-4.06-7.99-6.17h0c-.11-.09-.21-.21-.27-.33-.9-1.61-.1-2.71,1.33-3.96,2.51-2.19,4.96-4.16,7.34-5.9.76-.55,1.64-.9,2.63-1.04,4.48-.63,8.88-.96,13.2-.99.75,0,1.67.21,2.76.64,2.57,1.01,3.29,3.39,3.53,5.72.34,3.45.09,6.86-.76,10.23-.12.48-.61,1.19-1.45,2.13-1.87,2.07-5.74,1.83-8.45,1.65h0Z"/>
  <path class="cls-8" d="M483.78,202.24h0c1.23,4.03-1.43,8.26-5.95,9.44h0c-4.52,1.18-9.18-1.13-10.41-5.16h0c-1.23-4.03,1.43-8.26,5.95-9.44h0c4.52-1.18,9.18,1.13,10.41,5.16q.55,1.79,0,0h0Z"/>
  <path class="cls-6" d="M482.01,201.59h0c1.64,3.21.1,7.06-3.45,8.61h0c-3.54,1.55-7.74.2-9.38-3h0c-1.64-3.21-.1-7.06,3.45-8.61h0c3.54-1.55,7.74-.2,9.38,3h0Z"/>
  <path class="cls-8" d="M416.31,211.4h0c0,.13-.11.23-.25.23h-14.63c-.14,0-.25-.1-.25-.23v-13.04h0c0-.13.11-.23.25-.23h14.63c.14,0,.25.1.25.23h0v13.04Z"/>
  <path class="cls-6" d="M415.09,210.52h0c0,.05-.04.09-.1.09l-12.57-.02h0c-.06,0-.1-.04-.1-.09h0l.02-11.19h0c0-.05.04-.09.1-.09l12.57.02h0c.06,0,.1.04.1.09l-.02,11.19Z"/>
  <path class="cls-3" d="M378.85,199.37h0s.05-.05.08-.04c.03,0,.05.03.05.06-.04,2.02.16,4.06.59,6.11.41,1.96,1.36,4.41,2.87,7.36.88,1.72,2.58,3.56,3.71,4.88h0s.02.08-.01.11c-.03.02-.06.02-.09,0-2.17-.95-4.45-1.62-6.82-2.01-.33-.05-1.46-.16-3.39-.32-1.68-.14-3.24-.03-4.83.14h0c-.06,0-.11-.03-.12-.08,0-.03,0-.06.03-.08,1.13-1.04,2.06-1.87,2.85-3.11.88-1.39,2.27-2.93,2.7-4.6.71-2.77,1.51-5.58,2.39-8.42h0Z"/>
  <path class="cls-3" d="M212.43,217.47c1.12-1.24,2.32-2.92,3.62-5.03.63-1.02,1.08-1.96,1.36-2.8,1-3,1.58-5.15,1.75-6.45.13-.98.19-2.02.19-3.13h0c0-.05.04-.09.1-.09.05,0,.09.03.1.07.86,3.04,1.48,5.33,1.87,6.86.24.93.79,2.07,1.66,3.41,1.41,2.17,2.39,3.8,4.45,5.21h0c.07.05.08.14.03.2-.04.05-.1.07-.16.06-1.83-.32-3.49-.43-4.96-.32-2.92.21-6.67,1.07-9.91,2.16h0s-.11,0-.12-.05c0-.03,0-.06.02-.09h0Z"/>
  <path class="cls-8" d="M128.02,208.98l-3.48-2.52h0c-.27-.2-.32-.56-.11-.82.03-.03.06-.07.1-.09l3.44-2.58h0c.27-.2.66-.16.88.09.09.1.14.23.14.36l.05,5.1h0c0,.32-.28.58-.62.59-.14,0-.28-.04-.39-.12h-.01Z"/>
  <path class="cls-8" d="M182.7,202.91l3.56,2.63h0c.24.18.28.5.09.72-.03.03-.05.06-.09.08l-3.55,2.64h0c-.24.18-.59.14-.78-.08-.08-.09-.12-.2-.12-.32v-5.27h0c0-.28.25-.51.55-.52.13,0,.25.04.35.11h-.01Z"/>
  <path class="cls-7" d="M155.59,209.3c2.86,0,4.41,2.17,6.26,3.5.96.69,1.94,1.69,2.99,2.59,1.47,1.26,2.77,2.46,3.1,4.25.11.58.19,1.53.23,2.84.08,2.28.16,4.52.22,6.72.06,1.87.16,4.07-.48,5.62-.86,2.08-2.53,3.46-5.01,4.11-2.35.62-4.69.85-7.17.86s-4.83-.2-7.18-.8c-2.49-.64-4.17-1.99-5.05-4.07-.65-1.54-.58-3.74-.54-5.61.04-2.19.1-4.43.16-6.72.03-1.31.1-2.26.21-2.84.32-1.79,1.61-3,3.06-4.27,1.05-.92,2.01-1.92,2.97-2.62,1.83-1.34,3.36-3.54,6.22-3.55h0Z"/>
  <path class="cls-6" d="M145.11,218.32c.04-.15.13-.29.26-.42.82-.81,1.89-1.75,3.22-2.83,1.79-1.45,2.99-2.65,4.47-3.91h0c.08-.07.16-.12.25-.17,1.22-.61,2.44-.72,3.68-.32,1.22.39,2.94,1.89,3.7,2.66,1.54,1.56,3.23,2.85,5.1,4.42.23.19.42.45.57.76h0c.02.05,0,.11-.06.13-.04.02-.08,0-.11-.02-1.09-.91-2.08-1.9-3.14-2.79-.22-.18-1.46-1.16-3.73-2.94-1.02-.8-1.86-1.26-2.52-1.39-2.55-.48-4.06.51-5.89,2.05-1.37,1.15-3.25,2.76-5.66,4.83h0s-.09.03-.12,0c-.02-.02-.03-.05-.02-.07h0Z"/>
  <path class="cls-6" d="M164.72,218.74c1.3,1.02,2,2.31,2.09,3.87.28,4.82.39,8.12.33,9.88-.03.84-.3,1.73-.82,2.65-1.03,1.84-3.26,2.73-5.47,3.05-3.48.5-6.83.51-10.05.02-.86-.13-1.9-.47-3.13-1-2.21-.96-3.34-2.64-3.39-5.04-.07-3.36,0-6.78.26-10.26.11-1.53,1.39-2.81,2.77-3.94,2.96-2.43,4.67-3.85,5.14-4.26.85-.73,1.49-1.14,1.92-1.21,1.89-.31,3.11.16,4.53,1.4,2.22,1.93,4.15,3.54,5.8,4.84h.02Z"/>
  <path class="cls-6" d="M391.25,285.03h0s-.09,0-.1-.04c-.01-.03,0-.06.01-.08.88-.93,1.67-1.92,2.37-2.98.46-.71.74-1.12.82-1.24h0c.14-.2.31-.38.5-.53,1.1-.88,2.3-2.1,3.62-3.64,1.75-2.06,3.14-4.25,4.17-6.56,5.07-11.44,1.4-23.42-8.32-31.52-.74-.61-1.46-1.14-2.17-1.58-1.27-.79-2.03-1.41-3.09-1.93-3.68-1.79-6.82-2.96-9.44-3.51-4.21-.9-8.17-1.19-11.86-.89-4.01.33-7.8,1.16-11.39,2.51-1.8.67-3.87,1.71-6.22,3.1-1.76,1.04-3.35,2.51-5.14,3.99-.87.72-2.05,2.08-3.54,4.1-3.24,4.37-4.99,9.09-5.24,14.15-.34,6.86,2.11,13.42,6.76,18.81,1.05,1.22,2.7,2.75,4.96,4.61h0c.29.24.55.51.77.81,1.64,2.24,3.83,4.18,6.19,6.1.68.55,1.36.99,2.02,1.29,2.99,1.37,6.32,2.96,9.71,3.28,4.73.44,9.77.26,14.2-1.5h0c.08-.03.18,0,.22.08.02.04.02.08,0,.12-1.04,2.31-3.4,3.18-5.95,3.38-.69.05-2.83.13-6.41.23-3.79.1-6.94-.23-10.16-1-2.16-.51-2.79-1.61-3.73-3.64-.85-1.84-2.38-3.26-4.59-4.26-2.92-1.32-4.83-2.08-7.92-2.66-7.62-1.44-15.22-2-23.88-2.18-14.25-.29-27.78-.28-40.57.03-6.62.16-12.89.65-18.81,1.48-.52.07-2.09.41-4.7,1.01-1.93.44-3.34.86-4.25,1.24-1.24.53-2.56,1.18-3.94,1.95-1.21.68-1.63,1.09-2.26,2.28-1.33,2.51-1.86,4.1-4.43,4.76-3.07.78-6.3,1.12-9.7,1.02-3.35-.09-5.85-.21-7.49-.34-2.09-.16-4.19-1.24-5.18-3.04h0c-.04-.08,0-.17.07-.21.04-.02.09-.02.14,0,1.56.52,2.5.91,3.83,1.07,1.68.2,3.49.33,5.44.4,4.68.17,9-1.07,13.14-3.02.95-.45,2.11-1.13,3.48-2.05.95-.64,1.93-1.51,2.94-2.61,1.51-1.65,2.32-2.54,2.42-2.66h0c.21-.23.44-.44.71-.63,5.52-3.85,9.29-8.65,11.3-14.39,3.05-8.68,1.27-17.55-4.45-24.95-.67-.86-1.45-1.6-2.18-2.46-.29-.34-.59-.65-.89-.92-6.43-5.68-14.26-8.79-23.5-9.31-2.05-.12-3.93-.08-5.66.11-12.74,1.4-23.44,7.95-28.49,18.92-2.8,6.08-2.8,13.15-.29,19.26.87,2.12,1.63,3.68,2.29,4.67.35.53,1.25,1.71,2.7,3.55.65.82,1.6,1.69,2.34,2.36h0c.16.15.29.32.39.51.33.64.6,1.27,1.1,1.97.63.88,1.37,1.8,2.21,2.74h0s.04.12-.02.16c-.04.03-.09.03-.13.02-2.79-1.2-5.64-2.05-8.56-2.53-4.94-.81-9.61-1.05-13.98-.71-1.95.15-4.18.59-6.69,1.33-3.2.94-6.58,2.98-9.42,4.82-1.25.81-2.25,1.31-3,1.51-3.52.93-7.35.17-10.47-1.41h0c-.16-.08-.22-.26-.13-.41h0c5.28-8.23,11.22-16.43,17.8-24.58.72-.9,1.59-1.97,2.6-3.23,3.01-3.75,6.48-7.88,10.42-12.41,2.8-3.21,5.51-5.96,8.05-8.94.19-.22,1.01-1.09,2.45-2.6.44-.45,1.24-1.33,2.42-2.62,4.04-4.43,7.54-8.17,10.5-11.24.63-.65,1.56-1.32,2.8-1.99,3.51-1.91,7.65-2.97,11.7-3.02,1.69-.02,3.57.03,5.65.15.51.03,1,.13,1.47.31h0c.09.03.18.08.26.14,1.8,1.28,3.53,2.21,5.19,2.79,1.79.62,3.96,1.13,6.51,1.53,1.31.2,3.56.28,6.73.23,10.82-.17,23.88-.02,35.23,0,8.83,0,18.5.06,26.5.02,14.39-.07,28.81-.08,43.26-.02,5.3.02,10.8-1.51,15.11-4.48.31-.21.92-.36,1.84-.46,4.15-.44,8.3-.32,12.31.75,2.24.6,4.19,1.6,6.27,2.83.95.56,1.47.97,1.56,1.22.01.04.61.66,1.79,1.86.68.69,1.2,1.25,1.58,1.69.98,1.16,2.04,1.9,2.83,2.96,1.12,1.5,2.94,3,4.09,4.41.41.51,1.14,1.3,2.19,2.37,1.04,1.07,2.17,2.3,3.39,3.71,1.63,1.89,2.75,3.12,3.35,3.71.37.36,1.62,1.8,3.73,4.3.94,1.12,2.57,2.78,3.66,4.14,1.72,2.16,4.19,4.78,5.75,6.78,1.55,1.98,3.29,4,4.97,6.17,2.25,2.89,3.56,4.58,3.94,5.08,3.88,5.08,7.39,9.99,10.54,14.74,1.02,1.53,1.83,2.8,2.44,3.79h0c.05.09.02.2-.07.24h0c-2.64,1.22-6.41,2.4-9.25,1.77-1.73-.38-2.9-.7-4.46-1.77-1.47-1-3.24-2.03-5.29-3.08-3.78-1.94-7.83-2.99-12.15-3.15-3.52-.13-6.18-.08-7.98.16-3.48.46-5.92.88-7.32,1.24-2.38.62-4.65,1.34-6.8,2.16h-.04,0Z"/>
  <path class="cls-7" d="M455.25,229.5h0c2.37,7.12-2.16,14.73-10.12,17h0c-7.96,2.26-16.33-1.67-18.7-8.8h0c-2.37-7.12,2.16-14.73,10.12-17h0c7.96-2.26,16.33,1.67,18.7,8.8Z"/>
  <path class="cls-6" d="M454.38,230.87h0c1.57,6.67-3.21,13.29-10.67,14.8h0c-7.47,1.51-14.79-2.68-16.36-9.34h0c-1.57-6.67,3.21-13.29,10.67-14.8h0c7.47-1.51,14.79,2.68,16.36,9.34Z"/>
  <path class="cls-7" d="M280.51,228.24h0c.1-1.23,1.34-2.14,2.77-2.04h0c1.43.1,2.5,1.18,2.4,2.41h0c-.1,1.23-1.34,2.14-2.77,2.04h0c-1.43-.1-2.5-1.18-2.4-2.41h0Z"/>
  <path class="cls-7" d="M288.57,227.9h0c.28-1.19,1.65-1.93,3.05-1.64h0c1.4.28,2.3,1.48,2.02,2.67h0c-.28,1.19-1.65,1.93-3.05,1.64h0c-1.4-.28-2.3-1.48-2.02-2.67h0Z"/>
  <path class="cls-7" d="M296.52,228.31h0c.04-1.21,1.24-2.16,2.68-2.13h0c1.44.04,2.59,1.05,2.55,2.26h0c-.04,1.21-1.24,2.16-2.68,2.13h0c-1.44-.04-2.59-1.05-2.55-2.26Z"/>
  <path class="cls-7" d="M304.62,228.17h0c.13-1.21,1.39-2.09,2.82-1.96h0c1.42.13,2.47,1.23,2.33,2.44h0c-.13,1.21-1.39,2.09-2.82,1.96h0c-1.42-.13-2.47-1.23-2.33-2.44h0Z"/>
  <path class="cls-7" d="M317.79,228.36h0c.03,1.22-1.11,2.24-2.55,2.27h0c-1.44.03-2.64-.93-2.67-2.15h0c-.03-1.22,1.11-2.24,2.55-2.27h0c1.44-.03,2.64.93,2.67,2.15h0Z"/>
  <path class="cls-6" d="M292.55,228.3h0c.06.64-.54,1.21-1.35,1.28h0c-.81.07-1.52-.39-1.58-1.03h0c-.06-.64.54-1.21,1.35-1.28h0c.81-.07,1.52.39,1.58,1.03h0Z"/>
  <path class="cls-6" d="M308.7,228.39h0c.01.64-.65,1.18-1.48,1.19h0c-.83.02-1.52-.49-1.53-1.13h0c-.01-.64.65-1.18,1.48-1.19h0c.83-.02,1.52.49,1.53,1.13h0Z"/>
  <path class="cls-6" d="M284.43,228.38h0c.02.62-.6,1.14-1.39,1.16h0c-.79.02-1.44-.46-1.46-1.08h0c-.02-.62.6-1.14,1.39-1.16h0c.79-.02,1.44.46,1.46,1.08h0Z"/>
  <path class="cls-6" d="M300.54,228.38h0c.03.62-.56,1.15-1.33,1.18h0c-.77.04-1.42-.44-1.45-1.05h0c-.03-.62.56-1.15,1.33-1.18h0c.77-.04,1.42.44,1.45,1.05h0Z"/>
  <path class="cls-6" d="M313.79,228.39h0c.01-.64.67-1.14,1.46-1.12h0c.79.02,1.42.54,1.41,1.18h0c-.01.64-.67,1.14-1.46,1.12h0c-.79-.02-1.42-.54-1.41-1.18Z"/>
  <path class="cls-8" d="M440.82,234.72c-.14,0-.25.05-.35.15-1.89,1.96-3.79,3.7-5.7,5.2h0c-.16.13-.4.12-.55-.02l-.33-.31h0c-.15-.14-.16-.36-.02-.51,1.69-1.85,3.58-3.57,5.69-5.13h0c.16-.12.19-.35.06-.5,0,0-.02-.02-.03-.03l-5.62-5.2h0c-.18-.17-.18-.43,0-.6h0l.26-.24h0c.2-.19.53-.19.74,0h.01c1.39,1.35,2.28,2.18,2.68,2.49,1.06.82,2.06,1.72,3,2.71.02.02.08.03.17.03.1,0,.16,0,.17-.03.94-.99,1.95-1.89,3.01-2.7.4-.31,1.29-1.13,2.69-2.48h0c.2-.19.53-.2.74-.02h.01l.26.24h0c.18.16.18.43,0,.6h0l-5.64,5.19h0c-.15.14-.15.36,0,.5.01,0,.02.02.03.03,2.1,1.57,4,3.29,5.68,5.15h0c.14.15.13.37-.02.51l-.34.31h0c-.15.14-.39.15-.55.02-1.9-1.51-3.8-3.25-5.68-5.22-.09-.1-.21-.15-.35-.15h-.02Z"/>
  <path class="cls-8" d="M158.96,229.62l-2.89,3.09h0c-.2.21-.55.24-.78.05-.02-.02-.04-.03-.05-.05l-2.92-3.07h0c-.2-.21-.18-.54.05-.72.1-.08.23-.13.36-.13l5.81-.02h0c.31,0,.55.23.55.51,0,.12-.05.24-.14.34h0Z"/>
  <path class="cls-5" d="M201.5,276.66h0s0,.07-.05.07c-.02,0-.05,0-.06-.02-1.2-1.23-2.17-2.5-2.91-3.81-.94-1.68-1.93-3.04-2.49-4.73-1.33-3.98-2.05-8.04-1.36-12.07.12-.69.4-1.83.86-3.44,1.01-3.6,3.04-7.03,5.58-9.88.9-1.01,2.27-2.27,4.11-3.78,2.01-1.65,4.52-3.12,7.51-4.41,3.35-1.44,6.61-2.34,9.77-2.7,1.17-.13,2.37-.21,3.58-.23,1.73-.03,3.25-.17,4.78,0,3.29.37,6.02.91,8.19,1.62.2.07,1.22.44,3.05,1.11,1.08.4,2.06.86,2.92,1.4,1.41.88,2.8,1.5,4.18,2.6,1.85,1.47,3.31,2.76,4.39,3.88,5.25,5.42,7.88,12.62,7.09,19.84-.4,3.7-1.58,7.45-3.73,10.76-1.72,2.64-3.77,5.16-6.34,7.14h0s-.11.03-.15-.01c-.03-.03-.03-.07,0-.1,1.4-2.59,2.22-5.38,2.47-8.37.06-.7-.05-1.84.2-2.37.97-2.02,1.65-3.81,2.01-5.37.92-3.9.64-7.7-.84-11.39-.67-1.68-1.21-3.02-2.33-4.57-1.15-1.6-1.82-2.74-2.74-3.52-.67-.57-2.05-1.68-4.13-3.34-.39-.31-.79-.57-1.2-.76-1.41-.67-4.16-2.13-6.27-2.79-3-.93-6.16-1.45-9.49-1.54-3.25-.09-6.43.31-9.56,1.2-3.09.89-5.97,2.2-8.66,3.95-3.62,2.35-7.31,6.47-8.86,10.5-1.36,3.54-2.02,7.14-1.35,10.76.27,1.47.6,2.85.99,4.13h0c.06.19.08.39.05.59-.22,1.88-.33,2.99-.31,3.34.11,2.18.57,4.18,1.08,6.29l.03.02h0Z"/>
  <path class="cls-7" d="M308.66,233.48h0c.21-1.22,1.52-2.05,2.93-1.84h0c1.41.21,2.38,1.37,2.17,2.59h0c-.21,1.22-1.52,2.05-2.93,1.84h0c-1.41-.21-2.38-1.37-2.17-2.59Z"/>
  <path class="cls-5" d="M346.85,279.07h0c.03.08-.02.17-.11.2-.06.02-.13,0-.18-.04-1.04-1.01-2.22-2.3-3.54-3.87-.85-1.01-1.43-1.82-1.74-2.42-.62-1.18-1.35-2.15-1.9-3.51-1.36-3.35-2.04-6.64-2.03-9.89.01-4.44,1.32-8.8,3.93-13.08.18-.29.75-1.09,1.71-2.41.62-.85,1.28-1.59,1.99-2.21,1.08-.95,2.06-2.21,3.27-3.02,2.17-1.46,3.82-2.49,4.94-3.11.05-.03,1.36-.59,3.95-1.7,1.46-.63,2.83-1.08,4.1-1.35,2.39-.5,4.1-.79,5.11-.86,3.59-.23,6.32-.26,8.19-.08,1.57.15,3.69.58,6.37,1.28,3.99,1.04,7.98,2.95,11.24,5.46,1.56,1.2,2.55,1.97,2.96,2.31.67.55,1.82,1.85,3.45,3.89,2.13,2.65,3.64,5.78,4.54,9.39,2.11,8.48-.98,17.39-7.33,23.77h0s-.1.04-.15,0c-.03-.03-.04-.06-.03-.1.76-2.15,1.25-4.44,1.45-6.89.09-1.07-.05-2.01-.12-3.06h0c-.01-.16,0-.32.06-.47.09-.27.25-.76.48-1.45.79-2.34,1.14-4.8,1.06-7.38-.23-6.85-4.37-13.2-10.27-17.26-1.41-.96-2.56-1.66-3.48-2.07-3.64-1.66-7.33-2.89-11.23-3.16-3.84-.27-7.83-.06-11.67,1-.3.08-1.29.39-2.97.93-1.1.35-2.04.75-2.84,1.19-2.09,1.17-3.57,2.07-4.43,2.7-.67.49-1.97,1.72-3.91,3.67-.36.36-1.05,1.38-2.07,3.07-.82,1.34-1.39,2.42-1.72,3.25-2.2,5.5-2,11,.59,16.52h0c.16.33.23.69.22,1.05-.07,1.79.12,3.67.57,5.64.32,1.42,1.11,2.92,1.53,4.07h0Z"/>
  <path class="cls-7" d="M289.71,233.73h0c.09,1.22-1.01,2.29-2.47,2.38h0c-1.46.09-2.71-.82-2.8-2.04h0c-.09-1.22,1.01-2.29,2.47-2.38h0c1.46-.09,2.71.82,2.8,2.04h0Z"/>
  <path class="cls-7" d="M292.5,233.54h0c.18-1.22,1.49-2.05,2.92-1.87h0c1.43.18,2.44,1.32,2.26,2.53q-.08.54,0,0h0c-.18,1.22-1.49,2.05-2.92,1.87h0c-1.43-.18-2.44-1.32-2.26-2.53Z"/>
  <path class="cls-7" d="M300.54,233.52h0c.2-1.21,1.53-2.03,2.97-1.83h0c1.44.2,2.45,1.35,2.25,2.56h0c-.2,1.21-1.53,2.03-2.97,1.83h0c-1.44-.2-2.45-1.35-2.25-2.56q.09-.54,0,0Z"/>
  <path class="cls-6" d="M285.65,233.76h0c.06-.66.75-1.14,1.55-1.08h0c.8.06,1.4.64,1.35,1.3h0c-.06.66-.75,1.14-1.55,1.08h0c-.8-.06-1.4-.64-1.35-1.3Z"/>
  <path class="cls-6" d="M304.58,233.62h0c.11.62-.44,1.23-1.23,1.35h0c-.79.12-1.52-.29-1.63-.91h0c-.11-.62.44-1.23,1.23-1.35h0c.79-.12,1.52.29,1.63.91h0Z"/>
  <path class="cls-6" d="M296.62,233.75h0c.07.64-.52,1.22-1.34,1.3h0c-.81.08-1.53-.37-1.61-1h0c-.07-.64.52-1.22,1.34-1.3h0c.81-.08,1.53.37,1.61,1h0Z"/>
  <path class="cls-6" d="M312.68,233.81h0c.05.64-.57,1.21-1.39,1.26h0c-.81.05-1.51-.43-1.56-1.07h0c-.05-.64.57-1.21,1.39-1.26h0c.81-.05,1.51.43,1.56,1.07Z"/>
  <path class="cls-3" d="M201.4,264.14h0c-.03.06-.1.08-.16.05-.03-.01-.06-.04-.07-.08-.55-2.44-.66-4.89-.35-7.36.3-2.34,1.11-4.68,2.43-7.01,2.04-3.59,4.92-6.46,8.63-8.61,2.94-1.7,6.01-2.87,9.23-3.52,1.31-.26,2.8-.47,4.47-.62,4.61-.42,9.32.63,13.68,2.22,1.13.41,2.32,1.02,3.57,1.81,1.92,1.22,3.02,1.96,3.32,2.21.39.33,1.36,1.31,2.91,2.94,1,1.05,1.76,2.04,2.31,2.98,1.1,1.91,2.13,3.84,2.5,5.99.32,1.89.73,3.62.49,5.45-.29,2.2-.49,4.39-1.52,6.4h0c-.03.06-.1.08-.17.05-.04-.02-.06-.05-.07-.09-.29-1.57-.7-3.19-1.25-4.88-.39-1.19-1.06-2.47-2.01-3.85-1.31-1.9-2.21-3.12-2.69-3.67h0c-.06-.07-.14-.15-.21-.21-1.56-1.3-2.6-2.37-3.98-3.2-2.36-1.42-4.51-2.45-6.45-3.08-5.88-1.91-11.64-2.03-17.3-.37-4.11,1.21-7.62,3.12-10.51,5.73-3.03,2.74-5.17,5.95-6.41,9.62-.18.55-.32.9-.4,1.07v.03h0Z"/>
  <path class="cls-3" d="M396.41,264.92c-.66-1.96-1.26-3.5-1.79-4.63-1.66-3.54-4.74-6.74-8.02-9.11-1.28-.92-2.75-1.59-4.28-2.25-2.85-1.22-5.68-1.95-8.47-2.2-2.33-.21-4.73-.16-7.22.14-2.16.26-4.45.91-6.88,1.94-2.29.97-4.31,2.13-6.06,3.46-.78.6-1.43,1.19-1.93,1.78-.68.79-1.61,1.64-2.32,2.57-2.28,3.01-3.71,6.29-4.28,9.83h0s-.04.06-.09.06c-.03,0-.05-.02-.06-.04-.75-1.76-1.2-3.5-1.34-5.21-.05-.55-.05-1.64,0-3.26.08-3.1,1.58-6.67,3.1-9.14.58-.94,1.73-2.32,3.45-4.15.86-.91,2.15-1.68,3.22-2.57.48-.39.93-.71,1.36-.95,8.06-4.53,16.47-5.44,25.26-2.73,4.8,1.48,8.85,4.09,12.15,7.83,4.03,4.55,5.8,10.35,4.97,16.12-.14.92-.35,1.76-.65,2.51h0s-.05.05-.09.04c-.02,0-.03-.02-.04-.04h0Z"/>
  <path class="cls-8" d="M300.1,262.05h0c-.03.11-.16.17-.28.14h0l-4.16-1.31h0c-.14-.04-.24-.17-.24-.3v-17.44h0c0-.15.13-.27.3-.27h.08c3.47.91,5.99,1.61,7.58,2.09,2.98.91,4.16,3.92,3.52,6.72-.46,2-1.95,2.71-4.47,2.13h0c-.33-.08-.55-.36-.53-.67.14-2.04.12-4.12-.06-6.22h0c-.03-.38-.36-.68-.77-.7h-.03c-.39-.03-.73.25-.76.61h0c-.16,2.29-.2,4.12-.13,5.47.06,1.21.05,2.56-.03,4.06-.09,1.72-.06,3.49.08,5.34,0,.05-.02.17-.08.35h-.02,0Z"/>
  <path class="cls-5" d="M365.23,291.75c-3.13-.67-4.86-1.13-7.39-2.67-1.62-.99-2.63-1.6-3.02-1.84-1.18-.73-2.63-2.24-3.71-3.67-1.36-1.79-3.14-4.09-3.72-6.06-.59-2.03-1.02-3.18-1.15-4.78-.28-3.51-.25-6.21.95-9.32.67-1.73,1.2-2.95,1.58-3.65.22-.39.96-1.44,2.22-3.15.6-.81,1.46-1.67,2.58-2.56,1.56-1.24,2.53-2,2.91-2.27.28-.2,1.29-.73,3.02-1.6,1.14-.57,2.21-.99,3.22-1.24,3.21-.81,5.8-1.23,7.75-1.26,3.9-.06,8.66.87,12.38,2.79,3.43,1.77,6.32,4.14,8.65,7.1.17.21.71,1.06,1.62,2.55,1.51,2.46,2.3,5.11,2.56,7.81.05.57.08,1.61.08,3.13,0,2.91-.96,6.17-2.3,8.53-.69,1.22-1.54,2.49-2.54,3.82-.94,1.25-2.03,2.34-3.27,3.28-2.49,1.87-4.51,3.22-7.35,4.15-2.7.88-5.1,1.39-7.19,1.54-2.54.18-5.17-.02-7.89-.6v-.03h.01Z"/>
  <path class="cls-5" d="M204.35,279.76c-.18-.2-.29-.34-.34-.43-1.35-2.43-2.07-4.93-2.17-7.51-.07-1.92,0-3.61.2-5.06.21-1.51.68-3.14,1.41-4.89.25-.6.8-1.59,1.66-2.95,2.49-3.95,6.36-7.11,10.65-8.98,3.51-1.53,7.33-2.27,11.45-2.21,3.36.05,6.6.67,9.71,1.87,1.58.61,2.89,1.48,3.77,2,2.17,1.27,4.26,3.08,6.26,5.41.79.93,1.42,1.8,1.87,2.61,2.25,4,3.14,8.13,2.67,12.4-.32,2.92-1.14,5.6-2.46,8.05-.27.5-.95,1.49-2.06,2.99-1.58,2.14-3.99,3.89-5.74,5.12-.78.55-1.96,1.22-3.54,1.99-1.02.5-2.32.94-3.88,1.3-3.88.9-8.04,1.38-11.91.49-2.58-.59-4.24-.83-6.16-1.72-3.74-1.74-7.08-3.99-9.48-7.2-.26-.35-.84-1.36-1.74-3.04h0c-.05-.08-.1-.16-.17-.24h0Z"/>
  <path class="cls-8" d="M294.48,254.01l.06,1.91h0c0,.24-.16.44-.41.51-1.95.49-3.51.94-4.66,1.36h0c-.23.09-.37.31-.29.51.02.04.04.08.08.12.09.09.28.16.55.2,1.63.22,2.95-.23,4.46-.79h0c.11-.04.23,0,.28.11,0,.02.01.04.02.07l.04,1.43h0c0,.18-.12.33-.31.38-1.99.46-3.94.46-5.84-.01-.91-.23-3.5-.72-3.58-1.96-.03-.61.29-1.04.96-1.3,2.76-1.05,5.51-1.98,8.25-2.78h0c.16-.05.33.03.38.18,0,.02.01.05.01.07h0Z"/>
  <path class="cls-8" d="M300.93,262.01h0s-.05,0-.06-.02v-.02l.06-2.34h0s.03-.09.08-.1c2.37-.8,4.87-1.59,7.49-2.36h0c.23-.07.37-.28.32-.47-.01-.04-.03-.08-.06-.11-.44-.52-2.29-.34-2.81-.14-1.59.6-3.13,1.09-4.6,1.48h0c-.19.05-.4-.05-.45-.23,0-.03-.01-.06-.01-.08l-.05-1.74h0c0-.26.19-.49.46-.55,1.96-.39,4.27-.49,6.08-.46s3.55.49,5.23,1.37c1.5.79.22,1.94-.87,2.3-3.26,1.09-4.64,1.64-7.33,2.35-1.02.27-2.17.64-3.46,1.12h-.02Z"/>
  <path class="cls-8" d="M237.49,283.76c-.09.02-.15.03-.17.05-4.23,2.42-8.57,3.44-13.38,2.89-.9-.1-1.89-.34-2.96-.71-1.58-.55-2.53-.9-2.86-1.05-.9-.41-1.88-1.07-2.94-1.98-3.78-3.22-5.98-7.6-5.79-12.38.23-5.53,3.65-10.65,9.02-13.3,1.42-.7,2.49-1.14,3.19-1.3,1.04-.25,2.46-.46,4.26-.64,1.35-.13,2.77-.04,4.26.29,4.03.89,7.81,2.68,10.29,5.69,1.93,2.35,3.44,5.31,3.63,8.24.15,2.21-.11,4.41-.76,6.59-.34,1.14-.96,2.29-1.86,3.45-1.27,1.63-2.54,3-3.81,4.1h0s-.07.04-.11.05h0Z"/>
  <path class="cls-8" d="M388.19,269.84h0c.74,8.69-6.41,16.31-15.96,17h0c-9.55.7-17.9-5.79-18.64-14.48h0c-.74-8.69,6.41-16.31,15.96-17h0c9.55-.7,17.9,5.79,18.64,14.48h0Z"/>
  <path class="cls-3" d="M354.78,270.91h0c.11-8.05,7.41-14.49,16.31-14.39h0c8.9.1,16.03,6.7,15.92,14.75h0c-.11,8.05-7.41,14.49-16.31,14.39h0c-8.9-.1-16.03-6.7-15.92-14.75h0Z"/>
  <path class="cls-3" d="M235.62,283.08c-4.01,2.71-8.42,3.16-13.11,2.11-1.1-.25-1.97-.54-2.62-.89-1.9-1.01-4.04-2.17-5.33-3.58-5.73-6.24-5.25-15.07,1.33-20.46,1.89-1.55,4.07-2.63,6.53-3.23,1.39-.34,2.47-.52,3.24-.53,3.67-.08,7.27.55,10.3,2.68,2.48,1.73,4.22,3.49,5.22,5.26.86,1.51,1.42,3.4,1.69,5.66.24,2.02-.14,4.06-1.15,6.11-.99,2.02-1.78,3.51-3.57,4.96-1.03.83-1.87,1.47-2.53,1.92h0Z"/>
  <path class="cls-8" d="M311.18,271.8h0c0,1.7-1.49,3.08-3.33,3.08h-17.61c-1.84,0-3.33-1.38-3.33-3.08h0v-.28h0c0-1.7,1.49-3.08,3.33-3.08h17.61c1.84,0,3.33,1.38,3.33,3.08h0v.28h0Z"/>
  <path class="cls-6" d="M310.07,271.71h0c0,1.21-1.06,2.19-2.37,2.19h-17.28c-1.31,0-2.37-.98-2.37-2.19h0v-.11h0c0-1.21,1.06-2.19,2.37-2.19h17.28c1.31,0,2.37.98,2.37,2.19v.11Z"/>
  <path class="cls-9" d="M138.11,327.22h0c-.05.01-.11-.02-.13-.07v-.07c.51-.81.87-1.57,1.46-2.34,1.37-1.79,2.41-3.23,3.11-4.34.98-1.56,1.95-2.71,3.11-4.41.04-.06.47-.64,1.28-1.74,2.66-3.59,6.25-8.21,10.76-13.86,1.99-2.49,3.41-4.2,4.25-5.13.42-.46,1.08-1.27,1.97-2.44.39-.5,1.07-1.3,2.05-2.38,1.23-1.36,3.47-2.74,4.67-3.51h0c.06-.04.15-.03.19.03.03.04.03.09,0,.13-2.62,5.03-5.08,9.56-7.36,13.6-2.94,5.18-6.05,10.11-9.45,14.65-1.22,1.63-2.9,3.46-5.02,5.5-1.08,1.04-2.14,1.91-3.18,2.61-1.87,1.27-3.04,2.01-3.49,2.24-1.15.58-2.57,1.09-4.25,1.53h.03Z"/>
  <path class="cls-9" d="M460.5,327.22c-2.47-.76-5.01-1.85-7.22-3.39-2.52-1.76-4.78-3.78-6.79-6.07-7.05-8.04-11.89-17.45-17.13-26.82-.63-1.13-1.32-2.42-2.08-3.87h0s0-.02.01-.03h.02l3.86,2.36h0s.04.03.05.04c.49.48.94,1.21,1.47,1.75,1.29,1.32,2.53,2.72,3.71,4.19,2.52,3.14,3.34,4.03,5.48,6.76,1.84,2.35,3.62,4.43,5.12,6.49.64.89,1.51,2.01,2.61,3.37,1.63,2.01,3.25,4.4,4.97,6.7,2.32,3.11,4.32,5.92,5.99,8.42h0s.01.07-.02.08c-.02,0-.04.01-.05,0h0v.02h0Z"/>
  <path class="cls-6" d="M433.97,290.43c1.25.2,2.66.26,4.22.18,2.38-.12,4.65-.79,6.8-2.01h0c.17-.09.38-.04.48.11h0c2.76,4.46,5.14,8.31,7.12,11.55,3.04,4.97,6.77,11.76,8.69,15.23,1.9,3.43,3.24,6.51,4.98,9.66.41.75.88,1.78,1.39,3.09h0c.03.07-.01.15-.09.18-.02,0-.05.01-.07,0l-4.76-.61h0c-.2-.03-.38-.14-.48-.3-.67-1.09-1.21-1.89-1.6-2.4-.77-.98-1.33-1.75-1.69-2.32-.31-.49-1.41-2.08-3.3-4.78-1.04-1.49-2.12-2.94-3.24-4.36-1.59-2.02-2.78-3.86-4.35-5.77-1.09-1.33-2.07-2.55-2.93-3.68-1.79-2.34-3.44-4.15-4.82-5.91-1.91-2.44-4.48-5.09-6.49-7.66h0c-.04-.06-.03-.14.03-.18.03-.02.07-.03.1-.02h0Z"/>
  <path class="cls-6" d="M164.37,290.3h0c.05-.01.11.02.12.07v.07c-.86,1.29-2.09,2.42-3.13,3.68-6.06,7.42-10.29,12.71-12.67,15.89-2.25,3-3.41,4.54-3.47,4.61-.5.64-1.12,1.48-1.86,2.52-.77,1.09-1.38,1.93-1.84,2.53-.94,1.24-2,2.85-3.19,4.84h0c-.05.08-.1.16-.17.23-.85.99-1.52,1.91-1.99,2.77h0c-.09.17-.26.29-.46.33-1.62.37-3.24.56-4.85.58h0c-.14,0-.25-.1-.26-.23v-.07c.32-.93.58-1.65,1.07-2.51.93-1.64,1.53-2.95,2.33-4.62.46-.96,1.25-2.48,2.38-4.56,3.22-5.93,6.02-11.03,9.11-16.04.66-1.08,2.15-3.5,4.46-7.28,1-1.63,1.95-2.86,2.78-4.39h0c.05-.09.16-.12.26-.08h0c3.46,1.85,7.43,2.5,11.35,1.67h.03Z"/>
  <g class="cls-4">
    <g class="cls-4">
      <path class="cls-7" d="M425.33,89.15h2.52c1.62,0,2.57.58,2.57,1.79,0,.88-.61,1.38-1.23,1.56l1.41,2.23h-1.7l-1.16-1.96h-.84v1.96h-1.57v-5.58h0ZM427.86,91.76c.54,0,1.03-.17,1.03-.8,0-.55-.4-.78-1.04-.78h-.95v1.58h.96Z"/>
      <path class="cls-7" d="M431.3,94.68l.87-.82c1.44-1.37,2.08-2.11,2.08-2.82,0-.55-.33-.87-.98-.87-.6,0-1.29.29-1.82.62v-1.28c.42-.19,1.19-.43,2.08-.43,1.55,0,2.29.78,2.29,1.83s-1.02,1.91-1.95,2.74h2.14v1.09h-4.7v-.05h0Z"/>
    </g>
  </g>
  <g class="cls-4">
    <g class="cls-4">
      <path class="cls-7" d="M425.51,105.86h2.52c1.62,0,2.57.58,2.57,1.79,0,.88-.61,1.38-1.23,1.56l1.41,2.23h-1.7l-1.16-1.96h-.84v1.96h-1.57v-5.58h0ZM428.04,108.47c.54,0,1.03-.17,1.03-.8,0-.55-.4-.78-1.04-.78h-.95v1.58h.96Z"/>
      <path class="cls-7" d="M433.59,107.38l-2.09,1.44v-1.36l2.31-1.61h1.29v5.58h-1.51v-4.06h0Z"/>
    </g>
  </g>
  <g class="cls-4">
    <g class="cls-4">
      <path class="cls-7" d="M165.38,89.66h1.57v4.53h2.77v1.05h-4.34v-5.58h0Z"/>
      <path class="cls-7" d="M170.5,95.19l.87-.82c1.44-1.37,2.08-2.11,2.08-2.82,0-.55-.33-.87-.98-.87-.6,0-1.29.29-1.82.62v-1.28c.42-.19,1.19-.43,2.08-.43,1.55,0,2.29.78,2.29,1.83s-1.02,1.91-1.95,2.74h2.14v1.09h-4.7v-.05h0Z"/>
    </g>
  </g>
  <g class="cls-4">
    <g class="cls-4">
      <path class="cls-7" d="M165.32,105.27h1.57v4.53h2.77v1.05h-4.34v-5.58h0Z"/>
      <path class="cls-7" d="M172.55,106.79l-2.09,1.44v-1.36l2.31-1.61h1.29v5.58h-1.51v-4.06h0Z"/>
    </g>
  </g>
  <polyline id="callout_L2" data-name="callout L2" class="cls-10" points=".5 .5 116.01 .5 162.08 90.82"/>
  <polyline id="callout_L1" data-name="callout L1" class="cls-10" points=".5 61.04 128.09 61.04 162.08 112.52"/>
  <polyline id="callout_Create" data-name="callout Create" class="cls-10" points=".5 121.57 108.96 121.57 132.1 160.28 183.55 160.28"/>
  <line id="callout_DPad_Up" data-name="callout DPad Up" class="cls-10" x1=".5" y1="182.11" x2="141.23" y2="182.11"/>
  <polyline id="callout_DPad_Left" data-name="callout DPad Left" class="cls-10" points=".5 363.72 104.65 363.72 188.5 216.96"/>
  <polyline id="callout_DPad_Right" data-name="callout DPad Right" class="cls-10" points=".5 242.65 124.41 242.65 137.98 216.32"/>
  <polyline id="callout_DPad_Down" data-name="callout DPad Down" class="cls-10" points=".5 303.19 122.73 303.19 159.9 239.79"/>
  <polyline id="callout_Left_Thumb_Stick" data-name="callout Left Thumb Stick" class="cls-10" points=".5 424.26 141.87 424.26 226.76 271.06"/>
  <line id="callout_FNL" data-name="callout FNL" class="cls-10" x1="227.5" y1="368.88" x2="227.68" y2="296.98"/>
  <line id="callout_LB" data-name="callout LB" class="cls-10" x1="227.42" y1="105.09" x2="227.59" y2="33.19"/>
  <line id="callout_RB" data-name="callout RB" class="cls-10" x1="370.84" y1="105.09" x2="371.02" y2="33.19"/>
  <line id="callout_FNR" data-name="callout FNR" class="cls-10" x1="370.46" y1="368.88" x2="370.64" y2="296.98"/>
  <polyline id="callout_R2" data-name="callout R2" class="cls-10" points="439.58 90.82 478.88 .5 593.44 .5"/>
  <polyline id="callout_R1" data-name="callout R1" class="cls-10" points="439.58 112.52 467.02 61.04 593.44 61.04"/>
  <polyline id="callout_Start" data-name="callout Start" class="cls-10" points="414.99 160.22 462.38 160.22 485.6 121.57 593.44 121.57"/>
  <line id="callout_Triangle" data-name="callout Triangle" class="cls-10" x1="455.88" y1="182.11" x2="593.44" y2="182.11"/>
  <polyline id="callout_Square" data-name="callout Square" class="cls-10" points="370.93 271.66 452.07 424.26 593.44 424.26"/>
  <polyline id="callout_Circle" data-name="callout Circle" class="cls-10" points="470.67 217.4 484.98 242.65 593.44 242.65"/>
  <polyline id="callout_Cross" data-name="callout Cross" class="cls-10" points="436.66 246.17 470.32 303.19 593.44 303.19"/>
  <polyline id="callout_Right_Thumb_Stick" data-name="callout Right Thumb Stick" class="cls-10" points="406.86 218.55 498.9 363.72 593.44 363.72"/>
</svg>
